<svg width="80" height="80" viewBox="0 0 80 80" fill="none" xmlns="http://www.w3.org/2000/svg">
<rect width="80" height="80" rx="40" fill="#651FFF"/>
<mask id="mask0_6221_6253" style="mask-type:alpha" maskUnits="userSpaceOnUse" x="0" y="0" width="80" height="80">
<rect width="80" height="80" rx="40" fill="#2962FF"/>
</mask>
<g mask="url(#mask0_6221_6253)">
<rect x="-7.20752" y="25.7637" width="76.8" height="76.8" rx="38.4" transform="rotate(-3.7131 -7.20752 25.7637)" fill="#EDE7F6"/>
<rect x="42.8872" y="44.1699" width="8" height="8" rx="4" transform="rotate(-3.7131 42.8872 44.1699)" fill="#651FFF"/>
<rect x="23.9985" y="37.3262" width="8" height="8" rx="4" transform="rotate(-3.7131 23.9985 37.3262)" fill="#651FFF"/>
<path fill-rule="evenodd" clip-rule="evenodd" d="M23.559 51.9315C23.2639 50.8942 22.1867 50.2875 21.1454 50.5751C20.0992 50.8641 19.4853 51.9466 19.7743 52.9928L21.6687 52.4695C19.7743 52.9928 19.7746 52.9939 19.7749 52.9949L19.7755 52.9972L19.7769 53.0022L19.7802 53.0138L19.7889 53.0436C19.7956 53.0663 19.8042 53.0946 19.8149 53.1285C19.8362 53.1961 19.8658 53.2855 19.905 53.3944C19.9832 53.6122 20.0996 53.9087 20.2644 54.2661C20.5936 54.9805 21.1174 55.942 21.9165 57.0039C23.5241 59.14 26.2191 61.6448 30.59 63.3601C34.9609 65.0755 38.6402 65.0723 41.2715 64.5998C42.5796 64.3649 43.6176 64.0163 44.3448 63.7165C44.7086 63.5666 44.9957 63.4284 45.2012 63.3219C45.3039 63.2687 45.3864 63.2233 45.4481 63.1883C45.4789 63.1707 45.5045 63.1558 45.5249 63.1437L45.5515 63.1278L45.5618 63.1215L45.5662 63.1188L45.5682 63.1176C45.5691 63.117 45.5701 63.1164 44.5765 61.5079L45.5701 63.1164C46.4935 62.546 46.7798 61.335 46.2094 60.4115C45.6417 59.4924 44.4393 59.2046 43.5175 59.7643C43.5154 59.7655 43.5113 59.7679 43.5052 59.7713C43.4864 59.782 43.4488 59.8029 43.3931 59.8318C43.2815 59.8896 43.0978 59.979 42.8467 60.0825C42.3441 60.2898 41.5755 60.5517 40.5768 60.731C38.5945 61.087 35.6591 61.127 32.026 59.7011C28.3929 58.2753 26.2682 56.2495 25.0572 54.6403C24.447 53.8296 24.0617 53.1148 23.8342 52.621C23.7205 52.3744 23.6467 52.1839 23.6042 52.0656C23.583 52.0065 23.5697 51.9657 23.5632 51.945C23.5611 51.9384 23.5597 51.9339 23.559 51.9315C23.559 51.9315 23.559 51.9315 23.559 51.9315Z" fill="#651FFF"/>
</g>
</svg>
