<svg width="90" height="90" viewBox="0 0 90 90" fill="none" xmlns="http://www.w3.org/2000/svg">
<rect width="90" height="90" rx="45" fill="#E91E63"/>
<mask id="mask0_6196_6156" style="mask-type:alpha" maskUnits="userSpaceOnUse" x="0" y="0" width="90" height="90">
<rect width="90" height="90" rx="45" fill="#2962FF"/>
</mask>
<g mask="url(#mask0_6196_6156)">
<rect x="-8.10938" y="28.9844" width="86.4" height="86.4" rx="43.2" transform="rotate(-3.7131 -8.10938 28.9844)" fill="#FCE4EC"/>
<rect x="48.249" y="49.6904" width="9" height="9" rx="4.5" transform="rotate(-3.7131 48.249 49.6904)" fill="#E91E63"/>
<rect x="26.9976" y="41.9922" width="9" height="9" rx="4.5" transform="rotate(-3.7131 26.9976 41.9922)" fill="#E91E63"/>
<path fill-rule="evenodd" clip-rule="evenodd" d="M26.503 58.4229C26.1711 57.256 24.9593 56.5734 23.7878 56.897C22.6108 57.2221 21.9202 58.4399 22.2453 59.6169L24.3765 59.0282C22.2453 59.6169 22.2456 59.6181 22.246 59.6193L22.2467 59.6219L22.2483 59.6275L22.252 59.6405L22.2617 59.674C22.2692 59.6995 22.2789 59.7315 22.2909 59.7695C22.315 59.8456 22.3483 59.9461 22.3923 60.0687C22.4803 60.3137 22.6113 60.6473 22.7966 61.0494C23.167 61.8531 23.7562 62.9348 24.6553 64.1294C26.4638 66.5325 29.4957 69.3503 34.413 71.2801C39.3303 73.2099 43.4694 73.2064 46.4296 72.6748C47.9013 72.4105 49.069 72.0184 49.8871 71.6811C50.2964 71.5124 50.6194 71.3569 50.8505 71.2372C50.9661 71.1773 51.059 71.1262 51.1283 71.0868C51.163 71.0671 51.1918 71.0503 51.2147 71.0367L51.2446 71.0188L51.2562 71.0117L51.2612 71.0087L51.2634 71.0073C51.2645 71.0066 51.2655 71.006 50.1478 69.1964L51.2655 71.006C52.3044 70.3643 52.6264 69.0019 51.9847 67.963C51.3461 66.929 49.9934 66.6051 48.9564 67.2348C48.954 67.2362 48.9494 67.2389 48.9426 67.2428C48.9214 67.2548 48.8791 67.2783 48.8164 67.3108C48.6909 67.3758 48.4843 67.4764 48.2018 67.5929C47.6363 67.826 46.7716 68.1207 45.6481 68.3224C43.418 68.7229 40.1157 68.7678 36.0285 67.1638C31.9412 65.5597 29.551 63.2807 28.1885 61.4704C27.5021 60.5583 27.0687 59.7541 26.8127 59.1987C26.6848 58.9212 26.6017 58.7069 26.554 58.5738C26.5301 58.5074 26.5151 58.4614 26.5078 58.4382C26.5054 58.4307 26.5038 58.4256 26.503 58.4229C26.503 58.4229 26.503 58.4229 26.503 58.4229Z" fill="#E91E63"/>
</g>
</svg>
