<svg width="73" height="73" viewBox="0 0 73 73" fill="none" xmlns="http://www.w3.org/2000/svg">
<rect width="73" height="73" rx="20" fill="#2962FF"/>
<path d="M45.5998 20.9612H51.3929V40.8777H45.5998V20.9612ZM37.4268 18.0244H59.5659V24.0434H37.4268V18.0244Z" fill="white"/>
<path d="M11.7169 33.2114H18.9891C19.0713 33.7166 19.328 34.1636 19.7594 34.5523C20.2114 34.9215 20.8174 35.213 21.5775 35.4268C22.3376 35.6211 23.2312 35.7183 24.2583 35.7183C25.6758 35.7183 26.7748 35.5628 27.5555 35.2519C28.3566 34.9409 28.7572 34.4648 28.7572 33.8235C28.7572 33.3766 28.5312 33.0171 28.0793 32.745C27.6274 32.4535 26.7337 32.2592 25.3985 32.162L21.331 31.8413C18.003 31.6082 15.5892 30.928 14.0896 29.8009C12.6105 28.6543 11.871 27.1191 11.871 25.1952C11.871 23.6211 12.3537 22.3094 13.3193 21.26C14.2848 20.1912 15.6303 19.3847 17.3559 18.8406C19.0815 18.2965 21.1153 18.0244 23.4572 18.0244C25.7169 18.0244 27.7198 18.3256 29.466 18.9281C31.2326 19.5305 32.6295 20.3855 33.6567 21.4932C34.7044 22.5815 35.2796 23.8543 35.3823 25.3118H28.1101C28.0279 24.8843 27.7917 24.5151 27.4014 24.2041C27.0316 23.8738 26.4975 23.6211 25.799 23.4462C25.1006 23.2714 24.2686 23.1839 23.3031 23.1839C22.0294 23.1839 21.0126 23.3296 20.2525 23.6211C19.5129 23.9126 19.1432 24.3499 19.1432 24.9329C19.1432 25.3604 19.3589 25.7102 19.7903 25.9823C20.2422 26.2543 21.0639 26.4389 22.2554 26.5361L26.7235 26.8859C28.9421 27.0414 30.7293 27.3717 32.0852 27.877C33.4615 28.3628 34.4579 29.0333 35.0741 29.8883C35.6904 30.7239 35.9986 31.783 35.9986 33.0656C35.9986 34.6203 35.5055 35.9903 34.5195 37.1757C33.5334 38.3417 32.1468 39.2551 30.3596 39.9158C28.5929 40.5571 26.518 40.8777 24.1351 40.8777C21.6905 40.8777 19.5437 40.5571 17.6949 39.9158C15.846 39.2745 14.3978 38.3806 13.3501 37.234C12.3024 36.068 11.758 34.7272 11.7169 33.2114Z" fill="white"/>
<path d="M58.1206 49.9726C58.0845 50.7341 57.9218 51.4726 57.6325 52.1879C57.3433 52.8918 56.9214 53.5264 56.367 54.0918C55.8126 54.6456 55.1136 55.0841 54.2699 55.4072C53.4263 55.7187 52.438 55.8745 51.5747 55.8745C50.5141 55.8745 49.5198 55.7302 48.5917 55.4418C47.6637 55.1418 46.8442 54.7091 46.1331 54.1437C45.422 53.5668 44.8616 52.8572 44.4518 52.0149C44.0541 51.1726 43.8552 50.1976 43.8552 49.0899C43.8552 47.9822 44.0541 47.0072 44.4518 46.1649C44.8616 45.3226 45.428 44.6187 46.1512 44.0534C46.8864 43.4764 47.73 43.0438 48.6821 42.7553C49.6463 42.4553 50.4132 42.3053 51.522 42.3053C53.0527 42.3053 54.3663 42.5245 55.4631 42.963C56.5719 43.4014 57.4638 44.0072 58.1387 44.7803C58.8136 45.5534 59.2475 46.4418 59.4403 47.4457H55.21C55.1015 47.0649 54.8725 46.7418 54.523 46.4764C54.1856 46.1995 53.7637 45.9918 53.2575 45.8534C52.7514 45.7034 52.1849 45.6284 51.5582 45.6284C50.7868 45.6284 50.3875 45.7553 49.8211 46.0091C49.2667 46.263 48.8388 46.6437 48.5375 47.1514C48.2362 47.6591 48.0856 48.3053 48.0856 49.0899C48.0856 49.8745 48.2483 50.5322 48.5737 51.0629C48.9111 51.5937 49.3872 51.9918 50.0019 52.2572C50.6286 52.5226 51.0942 52.6552 51.9378 52.6552C52.7574 52.6552 53.4805 52.5514 54.1072 52.3437C54.746 52.136 55.2582 51.8302 55.6439 51.4264C56.0296 51.0226 56.2585 50.5206 56.3309 49.9206L58.1206 49.9726ZM52.1909 51.1841V48.6745H59.5669V55.8383H56.6201L56.0055 50.5264L56.7828 51.1841H52.1909Z" fill="white"/>
<path d="M34.9252 55.8745C33.2863 55.8745 31.8476 55.5918 30.6093 55.0264C29.3831 54.461 28.4241 53.6706 27.7321 52.6552C27.0522 51.6399 26.7123 50.4514 26.7123 49.0899C26.7123 47.7283 27.0522 46.5399 27.7321 45.5245C28.4241 44.5091 29.3831 43.7188 30.6093 43.1534C31.8476 42.588 33.2863 42.3053 34.9252 42.3053C36.5641 42.3053 37.9967 42.588 39.2229 43.1534C40.4612 43.7188 41.4203 44.5091 42.1001 45.5245C42.7921 46.5399 43.1381 47.7283 43.1381 49.0899C43.1381 50.4514 42.7921 51.6399 42.1001 52.6552C41.4203 53.6706 40.4612 54.461 39.2229 55.0264C37.9967 55.5918 36.5641 55.8745 34.9252 55.8745ZM34.9252 52.2918C35.7386 52.2918 36.4367 52.1649 37.0194 51.911C37.6143 51.6456 38.0695 51.2764 38.3852 50.8033C38.7008 50.3187 38.8586 49.7476 38.8586 49.0899C38.8586 48.4322 38.7008 47.8668 38.3852 47.3937C38.0695 46.9091 37.6143 46.5399 37.0194 46.286C36.4367 46.0207 35.7386 45.888 34.9252 45.888C34.1118 45.888 33.4077 46.0207 32.8128 46.286C32.23 46.5399 31.7809 46.9091 31.4652 47.3937C31.1496 47.8668 30.9917 48.4322 30.9917 49.0899C30.9917 49.7476 31.1496 50.3187 31.4652 50.8033C31.7809 51.2764 32.23 51.6456 32.8128 51.911C33.4077 52.1649 34.1118 52.2918 34.9252 52.2918Z" fill="white"/>
<path d="M17.2382 43.0203V54.1443L15.3936 52.3964H25.9999V55.8753H13.1449V43.0203H17.2382Z" fill="white"/>
</svg>
